<svg xmlns="http://www.w3.org/2000/svg" width="93.969" height="55" viewBox="0 0 93.969 55">
  <metadata><?xpacket begin="﻿" id="W5M0MpCehiHzreSzNTczkc9d"?>
<x:xmpmeta xmlns:x="adobe:ns:meta/" x:xmptk="Adobe XMP Core 5.6-c140 79.160451, 2017/05/06-01:08:21        ">
   <rdf:RDF xmlns:rdf="http://www.w3.org/1999/02/22-rdf-syntax-ns#">
      <rdf:Description rdf:about=""/>
   </rdf:RDF>
</x:xmpmeta>
                                                                                                    
                                                                                                    
                                                                                                    
                                                                                                    
                                                                                                    
                                                                                                    
                                                                                                    
                                                                                                    
                                                                                                    
                                                                                                    
                                                                                                    
                                                                                                    
                                                                                                    
                                                                                                    
                                                                                                    
                                                                                                    
                                                                                                    
                                                                                                    
                                                                                                    
                                                                                                    
                           
<?xpacket end="w"?></metadata>
<defs>
    <style>
      .cls-1 {
        fill: #399bd8;
        fill-rule: evenodd;
      }
    </style>
  </defs>
  <path id="доставка" class="cls-1" d="M479.682,919.283H478.5a12.241,12.241,0,0,0-.4-2.808h1.582a2.184,2.184,0,0,0,2.474-2.454v-6.506c-0.017-1.044-.695-1.469-2.235-2.182-0.318-.149-0.628-0.765-0.912-0.916a84.453,84.453,0,0,1-8.507-5.661,20.538,20.538,0,0,1-4.4-5.8c-0.379-.914-2.1-3.875-3.766-6.736-1.772-3.046-3.6-6.194-4.445-7.925-1.208-2.483-1.82-2.483-3.3-2.483l-0.377,0-15.393,0L423.5,916.475h28.694a12.3,12.3,0,0,0-.4,2.808H421.468a1.415,1.415,0,0,1-1.16-.6,1.4,1.4,0,0,1-.166-1.291l16.375-43.467a1.411,1.411,0,0,1,1.326-.915H454.6c2.19,0,4.01.3,5.844,4.068,0.8,1.637,2.6,4.74,4.347,7.74,1.869,3.213,3.482,5.985,3.933,7.073a18.259,18.259,0,0,0,3.613,4.729,90.953,90.953,0,0,0,8.014,5.8c0.24,0.128.5,0.248,0.771,0.373,1.52,0.705,3.817,1.77,3.865,4.7v6.528A4.95,4.95,0,0,1,479.682,919.283Zm-87.27-36.569a1.4,1.4,0,1,1,0-2.808h38.054l-1.088,2.808H392.412Zm2.91,8.421h29.924l-1.087,2.806H395.322A1.4,1.4,0,1,1,395.322,891.135Zm2.911,11.14H420.06l-1.087,2.807h-20.74A1.4,1.4,0,1,1,398.233,902.275Zm39.966-.712a2.173,2.173,0,1,1-2.173-2.157A2.165,2.165,0,0,1,438.2,901.563Zm2.8-22.14a1.413,1.413,0,0,1,1.333-.936h11.245a1.416,1.416,0,0,1,1.258.76L462.11,893.3a1.394,1.394,0,0,1-.055,1.379,1.418,1.418,0,0,1-1.2.667h-0.014l-23.416.039a1.415,1.415,0,0,1-1.144-.6,1.394,1.394,0,0,1-.174-1.271Zm17.522,13.1-5.807-11.225h-9.382l-3.909,11.31Zm7.121,16.6a9.446,9.446,0,1,1-9.515,9.445A9.481,9.481,0,0,1,465.646,909.116Zm0,15.569a6.122,6.122,0,1,0-6.167-6.12A6.143,6.143,0,0,0,465.643,924.685Z" transform="translate(-391 -873)"/>
</svg>
